<?xml version="1.0" encoding="UTF-8" standalone="no"?>
<!-- Created with Inkscape (http://www.inkscape.org/) -->

<svg
   version="1.1"
   id="svg2557"
   width="880"
   height="880"
   viewBox="0 0 880 880"
   sodipodi:docname="monkey-cartoon-publicdomainvectors.org.svg"
   inkscape:version="1.2 (dc2aedaf03, 2022-05-15)"
   xmlns:inkscape="http://www.inkscape.org/namespaces/inkscape"
   xmlns:sodipodi="http://sodipodi.sourceforge.net/DTD/sodipodi-0.dtd"
   xmlns="http://www.w3.org/2000/svg"
   xmlns:svg="http://www.w3.org/2000/svg">
  <defs
     id="defs2561">
    <clipPath
       clipPathUnits="userSpaceOnUse"
       id="clipPath2573">
      <path
         d="M 0,660 H 660 V 0 H 0 Z"
         id="path2571" />
    </clipPath>
  </defs>
  <sodipodi:namedview
     id="namedview2559"
     pagecolor="#ffffff"
     bordercolor="#000000"
     borderopacity="0.25"
     inkscape:showpageshadow="2"
     inkscape:pageopacity="0.0"
     inkscape:pagecheckerboard="0"
     inkscape:deskcolor="#d1d1d1"
     showgrid="false"
     inkscape:zoom="0.95113636"
     inkscape:cx="440.52569"
     inkscape:cy="440.52569"
     inkscape:window-width="1920"
     inkscape:window-height="1017"
     inkscape:window-x="-8"
     inkscape:window-y="-8"
     inkscape:window-maximized="1"
     inkscape:current-layer="g2565">
    <inkscape:page
       x="0"
       y="0"
       id="page2563"
       width="880"
       height="880" />
  </sodipodi:namedview>
  <g
     id="g2565"
     inkscape:groupmode="layer"
     inkscape:label="Page 1"
     transform="matrix(1.3333333,0,0,-1.3333333,0,880)">
    <g
       id="g2567">
      <g
         id="g2569"
         clip-path="url(#clipPath2573)">
        <g
           id="g2575"
           transform="translate(605.7256,517.6865)">
          <path
             d="m 0,0 -0.002,0.001 c -22.59,24.55 -61.158,26.153 -85.708,3.563 l -69.048,-63.535 82.147,-89.274 69.048,63.536 C 20.986,-63.12 22.59,-24.551 0,0"
             style="fill:#f29d72;fill-opacity:1;fill-rule:evenodd;stroke:none"
             id="path2577" />
        </g>
        <g
           id="g2579"
           transform="translate(534.7793,408.5269)">
          <path
             d="M 0,0 -43.727,47.521 4.444,91.848 C 17.47,103.834 38.084,102.975 50.07,89.95 62.055,76.925 61.198,56.311 48.173,44.326 Z"
             style="fill:#c76b3e;fill-opacity:1;fill-rule:evenodd;stroke:none"
             id="path2581" />
        </g>
        <g
           id="g2583"
           transform="translate(36.7192,348.3818)">
          <path
             d="m 0,0 v 0.001 c 5.494,32.906 36.913,55.335 69.82,49.84 L 162.37,34.389 142.39,-85.271 49.841,-69.819 C 16.934,-64.325 -5.495,-32.907 0,0"
             style="fill:#f29d72;fill-opacity:1;fill-rule:evenodd;stroke:none"
             id="path2585" />
        </g>
        <g
           id="g2587"
           transform="translate(155.7998,295.7637)">
          <path
             d="m 0,0 10.635,63.697 -64.568,10.781 c -17.46,2.915 -34.251,-9.074 -37.166,-26.533 -2.915,-17.458 9.072,-34.249 26.531,-37.165 z"
             style="fill:#c76b3e;fill-opacity:1;fill-rule:evenodd;stroke:none"
             id="path2589" />
        </g>
        <g
           id="g2591"
           transform="translate(198.3223,463.123)">
          <path
             d="m 0,0 225.53,67.105 c 60.069,17.873 123.837,-16.649 141.709,-76.718 12.816,-43.068 -1.306,-88.037 -32.467,-116.629 -16.416,-15.063 -22.412,-36.755 -16.057,-58.11 l 15.889,-53.406 c 14.095,-47.371 -13.129,-97.66 -60.5,-111.755 -47.371,-14.094 -97.66,13.131 -111.754,60.501 l -11.801,39.662 c -8.488,28.527 -38.678,44.871 -67.205,36.382 l -18.351,-5.461 C 4.925,-236.301 -58.845,-201.778 -76.717,-141.71 -94.59,-81.642 -60.067,-17.874 0,0"
             style="fill:#663c12;fill-opacity:1;fill-rule:evenodd;stroke:none"
             id="path2593" />
        </g>
        <g
           id="g2595"
           transform="translate(198.3232,463.123)">
          <path
             d="m 0,0 202.485,60.249 c 21.956,-22.388 38.385,-49.183 47.468,-79.708 25.782,-86.649 -14.291,-180.488 -94.69,-245.743 l -4.715,15.852 c -8.487,28.527 -38.678,44.871 -67.205,36.382 l -18.351,-5.461 C 4.924,-236.301 -58.846,-201.778 -76.718,-141.71 -94.591,-81.642 -60.068,-17.874 0,0"
             style="fill:#784a1c;fill-opacity:1;fill-rule:evenodd;stroke:none"
             id="path2597" />
        </g>
        <g
           id="g2599"
           transform="translate(211.8682,438.5508)">
          <path
             d="m 0,0 c -46.919,-13.961 -73.945,-63.881 -59.984,-110.8 13.96,-46.919 66.582,-71.875 112.08,-53.814 l 46.101,18.299 c 14.44,5.732 29.211,4.768 42.785,-2.793 13.573,-7.562 22.166,-19.613 24.895,-34.91 l 13.205,-74.084 c 6.268,-35.149 46.624,-53.95 80.844,-43.767 34.222,10.183 58.361,48.26 43.767,80.844 l -37.291,83.264 c -4.54,10.134 -4.327,20.701 0.616,30.646 4.943,9.946 13.241,16.493 24.061,18.994 41.161,9.511 57.488,54.111 45.25,95.242 C 330.34,27.251 317.73,43.718 301.58,54.858 281.348,68.814 258.295,72.65 234.634,65.999 220.713,62.085 208.864,55.182 199.432,45.591 180.055,25.887 154.071,18.13 127.064,23.99 110.664,27.548 92.47,27.513 74.722,22.232 Z"
             style="fill:#f29d72;fill-opacity:1;fill-rule:evenodd;stroke:none"
             id="path2601" />
        </g>
        <g
           id="g2603"
           transform="translate(211.8682,438.5508)">
          <path
             d="m 0,0 c -46.919,-13.961 -73.945,-63.881 -59.984,-110.8 13.96,-46.919 66.582,-71.875 112.08,-53.814 l 46.101,18.299 c 14.44,5.732 29.211,4.768 42.785,-2.793 13.573,-7.562 22.166,-19.613 24.895,-34.91 l 5.276,-29.604 c 60.321,62.686 87.661,143.425 65.255,218.735 -5.476,18.402 -13.634,35.439 -24.044,50.985 -4.71,-3.028 -9.029,-6.537 -12.932,-10.507 C 180.055,25.887 154.071,18.13 127.064,23.99 110.664,27.548 92.47,27.513 74.722,22.232 Z"
             style="fill:#fcb692;fill-opacity:1;fill-rule:evenodd;stroke:none"
             id="path2605" />
        </g>
        <g
           id="g2607"
           transform="translate(235.0771,419.5586)">
          <path
             d="m 0,0 c 23.945,7.125 50.933,-12.555 60.276,-43.956 9.343,-31.401 -2.495,-62.633 -26.442,-69.758 -23.945,-7.125 -50.932,12.555 -60.275,43.956 C -35.785,-38.357 -23.946,-7.126 0,0"
             style="fill:#c76b3e;fill-opacity:1;fill-rule:evenodd;stroke:none"
             id="path2609" />
        </g>
        <g
           id="g2611"
           transform="translate(252.8301,304.8848)">
          <path
             d="m 0,0 c -18.922,3.099 -36.914,20.447 -44.194,44.916 -4.807,16.156 -4.007,32.266 1.165,45.072 3.255,2.798 7.009,4.908 11.198,6.154 C -11.367,102.231 11.695,85.413 19.68,58.579 27.275,33.05 18.49,7.655 0,0"
             style="fill:#212121;fill-opacity:1;fill-rule:evenodd;stroke:none"
             id="path2613" />
        </g>
        <g
           id="g2615"
           transform="translate(236.5938,390.5146)">
          <path
             d="M 0,0 C 9.779,2.909 20.797,-5.126 24.613,-17.948 28.428,-30.77 23.593,-43.522 13.816,-46.431 4.039,-49.341 -6.98,-41.305 -10.795,-28.483 -14.61,-15.661 -9.777,-2.909 0,0"
             style="fill:#f5ded2;fill-opacity:1;fill-rule:evenodd;stroke:none"
             id="path2617" />
        </g>
        <g
           id="g2619"
           transform="translate(467.4082,482.686)">
          <path
             d="m 0,0 c 21.879,6.51 46.536,-11.471 55.073,-40.162 8.536,-28.69 -2.28,-57.225 -24.159,-63.735 -21.878,-6.51 -46.535,11.471 -55.072,40.161 C -32.694,-35.046 -21.878,-6.51 0,0"
             style="fill:#c76b3e;fill-opacity:1;fill-rule:evenodd;stroke:none"
             id="path2621" />
        </g>
        <g
           id="g2623"
           transform="translate(483.6289,377.9116)">
          <path
             d="m 0,0 c -17.287,2.831 -33.727,18.682 -40.379,41.039 -4.392,14.761 -3.66,29.48 1.065,41.182 2.974,2.555 6.404,4.483 10.231,5.622 C -10.386,93.406 10.686,78.04 17.982,53.522 24.921,30.197 16.895,6.995 0,0"
             style="fill:#212121;fill-opacity:1;fill-rule:evenodd;stroke:none"
             id="path2625" />
        </g>
        <g
           id="g2627"
           transform="translate(468.7949,456.1494)">
          <path
             d="m 0,0 c 8.935,2.658 19.002,-4.683 22.487,-16.398 3.486,-11.715 -0.93,-23.366 -9.865,-26.024 -8.933,-2.659 -19.001,4.683 -22.486,16.398 C -13.351,-14.309 -8.934,-2.658 0,0"
             style="fill:#f5ded2;fill-opacity:1;fill-rule:evenodd;stroke:none"
             id="path2629" />
        </g>
        <g
           id="g2631"
           transform="translate(359.2266,364.0049)">
          <path
             d="m 0,0 v 0 c 4.54,8.387 15.117,11.535 23.506,6.994 l 24.06,-13.026 13.026,24.06 c 4.541,8.389 15.119,11.535 23.506,6.994 8.387,-4.54 11.535,-15.118 6.994,-23.505 L 69.81,-37.793 C 65.27,-46.181 54.691,-49.328 46.304,-44.787 L 6.993,-23.506 C -1.394,-18.965 -4.54,-8.388 0,0"
             style="fill:#663c12;fill-opacity:1;fill-rule:evenodd;stroke:none"
             id="path2633" />
        </g>
        <g
           id="g2635"
           transform="translate(359.2266,364.0049)">
          <path
             d="M 0,0 V 0 C 0.637,1.177 1.393,2.251 2.246,3.215 4.618,3.044 6.987,2.381 9.206,1.181 l 24.06,-13.026 14.3,5.813 13.026,24.061 c 0.637,1.177 1.394,2.251 2.246,3.215 2.373,-0.171 4.743,-0.834 6.96,-2.034 8.388,-4.541 11.535,-15.118 6.995,-23.506 l -21.281,-39.31 c -0.638,-1.178 -1.395,-2.251 -2.248,-3.216 -2.372,0.171 -4.742,0.834 -6.96,2.035 L 6.993,-23.506 C -1.394,-18.965 -4.54,-8.388 0,0"
             style="fill:#422406;fill-opacity:1;fill-rule:evenodd;stroke:none"
             id="path2637" />
        </g>
        <g
           id="g2639"
           transform="translate(333.5752,585.3408)">
          <path
             d="m 0,0 h 0.001 c 9.225,2.745 19.016,-2.556 21.761,-11.78 l 18.743,-62.993 c 2.745,-9.224 -2.557,-19.016 -11.78,-21.761 H 28.723 C 19.5,-99.278 9.707,-93.978 6.962,-84.753 L -11.779,-21.76 C -14.524,-12.536 -9.224,-2.745 0,0"
             style="fill:#784a1c;fill-opacity:1;fill-rule:evenodd;stroke:none"
             id="path2641" />
        </g>
        <g
           id="g2643"
           transform="translate(399.9307,568.0156)">
          <path
             d="M 0,0 V 0 C 7.439,-3.057 11.024,-11.646 7.969,-19.086 L -12.91,-69.895 c -3.058,-7.441 -11.646,-11.027 -19.086,-7.97 -7.442,3.057 -11.026,11.645 -7.969,19.086 l 20.878,50.81 C -16.029,-0.529 -7.44,3.057 0,0"
             style="fill:#784a1c;fill-opacity:1;fill-rule:evenodd;stroke:none"
             id="path2645" />
        </g>
        <g
           id="g2647"
           transform="translate(287.4873,534.5586)">
          <path
             d="M 0,0 V 0 C -4.559,-6.627 -2.867,-15.78 3.761,-20.337 L 49.02,-51.468 c 6.628,-4.56 15.779,-2.867 20.338,3.761 4.56,6.627 2.866,15.779 -3.761,20.338 L 20.337,3.761 C 13.709,8.32 4.559,6.627 0,0"
             style="fill:#784a1c;fill-opacity:1;fill-rule:evenodd;stroke:none"
             id="path2649" />
        </g>
        <g
           id="g2651"
           transform="translate(412.4902,317.1826)">
          <path
             d="M 0,0 C 20.128,-23.678 30.745,-66.363 39.67,-112.428 37.585,-69.142 33.112,-27.268 14.821,6.432 9.882,4.288 4.941,2.144 0,0"
             style="fill:#663c12;fill-opacity:1;fill-rule:evenodd;stroke:none"
             id="path2653" />
        </g>
        <g
           id="g2655"
           transform="translate(395.7559,189.3096)">
          <path
             d="M 0,0 C 24.059,-32.47 118.294,4.475 108.893,35.072 89.414,13.246 44.107,-5.576 0,0"
             style="fill:#663c12;fill-opacity:1;fill-rule:evenodd;stroke:none"
             id="path2657" />
        </g>
      </g>
    </g>
  </g>
</svg>
